<svg width="13" height="13" viewBox="0 0 13 13" fill="none" xmlns="http://www.w3.org/2000/svg">
<path d="M6.5 0C5.21442 0 3.95772 0.381218 2.8888 1.09545C1.81988 1.80968 0.986755 2.82484 0.494786 4.01256C0.00281632 5.20028 -0.125905 6.50721 0.124899 7.76809C0.375702 9.02896 0.994767 10.1872 1.90381 11.0962C2.81285 12.0052 3.97104 12.6243 5.23191 12.8751C6.49279 13.1259 7.79972 12.9972 8.98744 12.5052C10.1752 12.0132 11.1903 11.1801 11.9046 10.1112C12.6188 9.04228 13 7.78558 13 6.5C12.9981 4.77667 12.3127 3.12446 11.0941 1.90588C9.87554 0.687304 8.22333 0.00188109 6.5 0ZM6.5 12.3809C5.33686 12.3809 4.19984 12.036 3.23272 11.3898C2.2656 10.7436 1.51183 9.82514 1.06671 8.75054C0.621596 7.67594 0.505134 6.49347 0.732051 5.35268C0.958969 4.21189 1.51908 3.164 2.34154 2.34154C3.16401 1.51907 4.21189 0.958966 5.35268 0.732048C6.49348 0.505131 7.67594 0.621593 8.75054 1.06671C9.82515 1.51182 10.7436 2.2656 11.3898 3.23272C12.036 4.19983 12.381 5.33686 12.381 6.5C12.3792 8.05918 11.759 9.55399 10.6565 10.6565C9.554 11.759 8.05918 12.3792 6.5 12.3809ZM9.28572 6.5C9.28574 6.54065 9.27775 6.58091 9.2622 6.61848C9.24666 6.65604 9.22386 6.69017 9.19511 6.71892C9.16636 6.74766 9.13223 6.77046 9.09467 6.78601C9.05711 6.80156 9.01685 6.80955 8.97619 6.80952H6.5C6.45935 6.80955 6.41909 6.80156 6.38152 6.78601C6.34396 6.77046 6.30983 6.74766 6.28108 6.71892C6.25234 6.69017 6.22954 6.65604 6.21399 6.61848C6.19844 6.58091 6.19045 6.54065 6.19048 6.5V2.78571C6.19048 2.70362 6.22309 2.62489 6.28114 2.56685C6.33918 2.5088 6.41791 2.47619 6.5 2.47619C6.58209 2.47619 6.66082 2.5088 6.71887 2.56685C6.77692 2.62489 6.80953 2.70362 6.80953 2.78571V6.19047H8.97619C9.01685 6.19045 9.05711 6.19844 9.09467 6.21399C9.13223 6.22953 9.16636 6.25233 9.19511 6.28108C9.22386 6.30983 9.24666 6.34396 9.2622 6.38152C9.27775 6.41908 9.28574 6.45934 9.28572 6.5Z" fill="#008FFF"/>
</svg>
