<svg width="37" height="33" viewBox="0 0 37 33" fill="none" xmlns="http://www.w3.org/2000/svg">
<path d="M32.5952 0H4.40476C3.23688 0.0010623 2.11713 0.458874 1.29131 1.27295C0.465495 2.08702 0.00107763 3.19083 0 4.34211V28.6579C0.00107763 29.8092 0.465495 30.913 1.29131 31.7271C2.11713 32.5411 3.23688 32.9989 4.40476 33H32.5952C33.7631 32.9989 34.8829 32.5411 35.7087 31.7271C36.5345 30.913 36.9989 29.8092 37 28.6579V4.34211C36.9989 3.19083 36.5345 2.08702 35.7087 1.27295C34.8829 0.458874 33.7631 0.0010623 32.5952 0ZM35.2381 28.6579C35.2373 29.3486 34.9586 30.0108 34.4632 30.4993C33.9677 30.9877 33.2959 31.2624 32.5952 31.2632H4.40476C3.70407 31.2624 3.03229 30.9877 2.53682 30.4993C2.04136 30.0108 1.76267 29.3486 1.7619 28.6579V11.086L16.234 19.6463C16.9184 20.0514 17.7017 20.2654 18.5 20.2654C19.2983 20.2654 20.0816 20.0514 20.766 19.6463L35.2381 11.086V28.6579ZM35.2381 9.06076L19.861 18.1571C19.4498 18.4002 18.9794 18.5286 18.5 18.5286C18.0206 18.5286 17.5502 18.4002 17.139 18.1571L1.7619 9.06076V4.34211C1.76267 3.65138 2.04136 2.98916 2.53682 2.50074C3.03229 2.01232 3.70407 1.7376 4.40476 1.73684H32.5952C33.2959 1.7376 33.9677 2.01232 34.4632 2.50074C34.9586 2.98916 35.2373 3.65138 35.2381 4.34211V9.06076Z" fill="#008FFF"/>
</svg>
