<svg width="37" height="37" viewBox="0 0 37 37" fill="none" xmlns="http://www.w3.org/2000/svg">
<g clip-path="url(#clip0_1_179)">
<path d="M13.602 11.6396C13.602 12.7188 12.9151 13.6019 11.6396 13.6019C10.4622 13.6019 9.67732 12.7188 9.67732 11.7377C9.67732 10.6584 10.4622 9.67725 11.6396 9.67725C12.817 9.67725 13.602 10.5603 13.602 11.6396Z" fill="#008FFF"/>
<path d="M13.602 14.5779H9.68248V27.3175H13.602V14.5779Z" fill="#008FFF"/>
<path d="M23.0056 14.7742C20.9451 14.7742 19.7729 15.9516 19.2823 16.7365H19.1842L18.988 15.0686H15.461C15.461 16.1478 15.5591 17.4182 15.5591 18.8899V27.3175H19.4786V20.3616C19.4786 19.9692 19.4786 19.6748 19.5767 19.3805C19.871 18.6937 20.3616 17.8106 21.4409 17.8106C22.8145 17.8106 23.4032 18.988 23.4032 20.5527V27.3124H27.3227V20.0621C27.3227 16.437 25.4585 14.769 23.0107 14.769L23.0056 14.7742Z" fill="#008FFF"/>
<path d="M29.4554 1.03271H7.54459C3.94823 1.03271 1.0328 3.94814 1.0328 7.54451V29.4553C1.0328 33.0517 3.94823 35.9671 7.54459 35.9671H29.4554C33.0518 35.9671 35.9672 33.0517 35.9672 29.4553V7.54451C35.9672 3.94814 33.0518 1.03271 29.4554 1.03271Z" stroke="#008FFF" stroke-linecap="round" stroke-linejoin="round"/>
</g>
<defs>
<clipPath id="clip0_1_179">
<rect width="37" height="37" fill="white"/>
</clipPath>
</defs>
</svg>
