<svg width="13" height="17" viewBox="0 0 13 17" fill="none" xmlns="http://www.w3.org/2000/svg">
<path d="M5.68303 15.6958L6.32899 16.0184C6.3821 16.0449 6.44064 16.0587 6.5 16.0587C6.55936 16.0587 6.6179 16.0449 6.67101 16.0184L7.31697 15.6958C9.02866 14.8468 10.4683 13.5354 11.4727 11.9101C12.4772 10.2848 13.0062 8.41057 12.9999 6.49994C12.9999 4.77605 12.3151 3.12277 11.0962 1.90379C9.87718 0.684814 8.22389 0 6.5 0C4.77611 0 3.12282 0.684814 1.90385 1.90379C0.684869 3.12277 5.54326e-05 4.77605 5.54326e-05 6.49994C-0.00623414 8.41057 0.522822 10.2848 1.52726 11.9101C2.5317 13.5354 3.97134 14.8468 5.68303 15.6958ZM6.5 0.764699C8.02057 0.766359 9.47839 1.37114 10.5536 2.44635C11.6288 3.52155 12.2336 4.97937 12.2352 6.49994C12.2411 8.26847 11.7515 10.0033 10.8217 11.5077C9.89198 13.0121 8.55937 14.226 6.97495 15.0117L6.5 15.2492L6.02505 15.0117C4.44063 14.226 3.10802 13.0121 2.17828 11.5077C1.24854 10.0033 0.758858 8.26847 0.764755 6.49994C0.766415 4.97937 1.37119 3.52155 2.4464 2.44635C3.52161 1.37114 4.97943 0.766359 6.5 0.764699ZM6.5 9.17639C7.02935 9.17639 7.54682 9.01942 7.98695 8.72533C8.42709 8.43124 8.77014 8.01323 8.97272 7.52418C9.17529 7.03512 9.22829 6.49698 9.12502 5.9778C9.02175 5.45862 8.76684 4.98172 8.39253 4.60741C8.01823 4.2331 7.54133 3.9782 7.02215 3.87492C6.50297 3.77165 5.96482 3.82466 5.47577 4.02723C4.98671 4.2298 4.56871 4.57285 4.27461 5.01299C3.98052 5.45313 3.82355 5.97059 3.82355 6.49994C3.82441 7.20952 4.10667 7.88979 4.60841 8.39153C5.11016 8.89328 5.79043 9.17554 6.5 9.17639ZM6.5 4.5882C6.87811 4.5882 7.24773 4.70032 7.56211 4.91038C7.8765 5.12045 8.12153 5.41902 8.26622 5.76835C8.41092 6.11768 8.44878 6.50207 8.37501 6.87291C8.30125 7.24375 8.11917 7.58439 7.85181 7.85176C7.58445 8.11912 7.24381 8.30119 6.87296 8.37496C6.50212 8.44872 6.11773 8.41087 5.7684 8.26617C5.41908 8.12147 5.1205 7.87644 4.91044 7.56206C4.70037 7.24767 4.58825 6.87805 4.58825 6.49994C4.58872 5.99306 4.79029 5.50707 5.14871 5.14865C5.50713 4.79023 5.99312 4.58866 6.5 4.5882Z" fill="#008FFF"/>
</svg>
