<svg width="56" height="70" viewBox="0 0 56 70" fill="none" xmlns="http://www.w3.org/2000/svg">
<g clip-path="url(#clip0_1_141)">
<path d="M47.4743 37.3364C47.4245 23.1472 44.2743 24.739 43.8484 24.9555C39.3938 27.2121 28.7002 27.4021 27.8062 27.4134C26.3444 27.3907 16.0691 27.1399 11.7525 24.9555C11.3266 24.739 8.1765 23.1472 8.12662 37.3364L12.1477 39.5398L26.0067 44.072H29.5942L43.4532 39.5398L47.4743 37.3364Z" fill="#495060"/>
<path d="M14.2504 48.9764C14.2504 48.9764 17.5923 52.0384 22.6647 51.0583L24.0269 45.7891C24.0269 45.7891 17.7151 42.3586 13.5098 42.7271L14.2504 48.9764Z" fill="#495060"/>
<path d="M33.059 51.0583C38.1314 52.0384 41.4734 48.9764 41.4734 48.9764L42.2139 42.7271C38.0086 42.3586 31.6969 45.7891 31.6969 45.7891L33.059 51.0583Z" fill="#495060"/>
<path d="M30.3731 69.8404C30.3962 69.8404 30.423 69.8366 30.446 69.8328C32.4067 69.6467 35.1424 69.2554 37.6518 68.4196C37.6518 68.4196 47.7506 49.3639 47.5319 40.3983L44.0671 42.8487L43.4494 50.0782C43.4494 50.0782 36.5966 54.5647 30.8297 52.7716L29.9626 47.5024H25.6307L24.7635 52.7716C18.2062 54.7319 12.1439 50.0782 12.1439 50.0782L11.5261 42.8487L8.06139 40.3983C7.07146 46.4007 18.0988 68.4196 18.0988 68.4196C20.1784 69.0806 24.2417 70.0532 27.7333 69.9924C27.7372 69.9924 27.741 69.9924 27.7487 69.9924C27.7448 69.9924 27.741 69.9962 27.7333 69.9962C27.7333 69.9962 28.3703 69.9886 29.3909 69.9202C29.4715 69.9164 29.5559 69.9088 29.6403 69.9012C29.8667 69.8822 30.1122 69.8632 30.3693 69.8404H30.3731Z" fill="#495060"/>
<path d="M49.9376 40.3983C50.2523 44.695 45.2374 57.4254 45.2374 57.4254L52.2628 56.5668L56 45.0521L49.9376 40.3983Z" fill="#495060"/>
<path d="M6.06235 40.3983L0 45.0559L3.73717 56.5706L10.7626 57.4292C10.7626 57.4292 5.74772 44.6988 6.06235 40.4021V40.3983Z" fill="#495060"/>
<path d="M7.95779 24.2527C8.92086 20.4499 14.1391 23.5537 14.1391 23.5537C20.0787 26.004 27.741 25.9052 27.741 25.9052C36.1669 25.9622 42.7933 22.9952 44.2283 22.5317C46.9065 21.6618 47.4782 24.3515 47.4782 24.3515L49.2432 31.4024C49.2432 31.4024 50.1525 24.701 50.0643 22.3608C50.26 22.1557 50.4441 21.9467 50.6245 21.7378C55.9002 15.4846 54.4691 6.34809 54.4691 6.34809C51.4724 8.00825 41.3506 9.64941 41.5885 8.97319C41.976 7.87149 42.2216 1.69434 42.2216 1.69434C32.6331 4.97666 28.6734 5.50472 28.6734 5.50472L32.94 0C15.3976 4.20927 8 9.65321 8 9.65321L5.47914 22.3608L6.95252 31.4594L7.95779 24.2565V24.2527Z" fill="#495060"/>
</g>
<defs>
<clipPath id="clip0_1_141">
<rect width="56" height="70" fill="white"/>
</clipPath>
</defs>
</svg>
