<svg width="20" height="26" viewBox="0 0 20 26" fill="none" xmlns="http://www.w3.org/2000/svg">
<g clip-path="url(#clip0_1_158)">
<path d="M16.9551 13.8678C16.9373 8.59753 15.8122 9.18876 15.6601 9.26919C14.0692 10.1073 10.2501 10.1779 9.93078 10.1821C9.40868 10.1737 5.73893 10.0805 4.19731 9.26919C4.0452 9.18876 2.92016 8.59753 2.90234 13.8678L4.33845 14.6862L9.28809 16.3696H10.5694L15.519 14.6862L16.9551 13.8678Z" fill="#008FFF"/>
<path d="M5.08943 18.1913C5.08943 18.1913 6.28298 19.3286 8.09456 18.9645L8.58103 17.0074C8.58103 17.0074 6.32684 15.7332 4.82495 15.8701L5.08943 18.1913Z" fill="#008FFF"/>
<path d="M11.8068 18.9645C13.6184 19.3286 14.8119 18.1913 14.8119 18.1913L15.0764 15.8701C13.5745 15.7332 11.3203 17.0074 11.3203 17.0074L11.8068 18.9645Z" fill="#008FFF"/>
<path d="M10.8476 25.9407C10.8558 25.9407 10.8654 25.9393 10.8736 25.9379C11.5738 25.8688 12.5509 25.7234 13.4471 25.413C13.4471 25.413 17.0538 18.3352 16.9757 15.0051L15.7383 15.9152L15.5177 18.6005C15.5177 18.6005 13.0702 20.2669 11.0106 19.6009L10.7009 17.6438H9.15383L8.84414 19.6009C6.50224 20.329 4.33712 18.6005 4.33712 18.6005L4.11649 15.9152L2.87908 15.0051C2.52554 17.2346 6.46387 25.413 6.46387 25.413C7.20659 25.6585 8.65777 26.0198 9.90478 25.9972C9.90615 25.9972 9.90752 25.9972 9.91026 25.9972C9.90889 25.9972 9.90752 25.9986 9.90478 25.9986C9.90478 25.9986 10.1323 25.9958 10.4968 25.9704C10.5255 25.969 10.5557 25.9661 10.5858 25.9633C10.6667 25.9563 10.7544 25.9492 10.8462 25.9407H10.8476Z" fill="#008FFF"/>
<path d="M17.8348 15.0051C17.9472 16.601 16.1562 21.3294 16.1562 21.3294L18.6653 21.0105L20 16.7336L17.8348 15.0051Z" fill="#008FFF"/>
<path d="M2.16512 15.0051L0 16.735L1.3347 21.0119L3.84378 21.3308C3.84378 21.3308 2.05276 16.6024 2.16512 15.0065V15.0051Z" fill="#008FFF"/>
<path d="M2.84208 9.00814C3.18604 7.59568 5.04969 8.74851 5.04969 8.74851C7.17096 9.65863 9.90752 9.62195 9.90752 9.62195C12.9168 9.64311 15.2833 8.54108 15.7958 8.36893C16.7523 8.0458 16.9565 9.04483 16.9565 9.04483L17.5869 11.6637C17.5869 11.6637 17.9116 9.17464 17.8801 8.30544C17.95 8.22924 18.0158 8.15163 18.0802 8.07403C19.9644 5.75144 19.4533 2.35786 19.4533 2.35786C18.383 2.97449 14.7681 3.58407 14.853 3.3329C14.9915 2.92369 15.0792 0.629328 15.0792 0.629328C11.6547 1.84847 10.2405 2.04461 10.2405 2.04461L11.7643 0C5.49916 1.56344 2.85716 3.58548 2.85716 3.58548L1.95685 8.30544L2.48306 11.6849L2.84208 9.00955V9.00814Z" fill="#008FFF"/>
</g>
<defs>
<clipPath id="clip0_1_158">
<rect width="20" height="26" fill="white"/>
</clipPath>
</defs>
</svg>
